<svg width="51" height="50" viewBox="0 0 51 50" fill="none" xmlns="http://www.w3.org/2000/svg">
<g clip-path="url(#clip0_8375_6455)">
<path d="M45.6118 49.875H5.74707C5.05664 49.875 4.49707 49.3154 4.49707 48.625C4.49707 47.9346 5.05664 47.375 5.74707 47.375H45.6118C46.3023 47.375 46.8618 47.9346 46.8618 48.625C46.8618 49.3154 46.3023 49.875 45.6118 49.875Z" fill="#1AE5BE"/>
<path d="M10.731 29.5713C10.8564 29.1465 11.0864 28.7598 11.3999 28.4463L33.6299 6.21631C35.7041 4.14209 39.0674 4.14209 41.1416 6.21631L42.0005 7.0752C41.896 5.82666 41.3516 4.65625 40.4649 3.77149L39.374 2.68067C37.2998 0.606445 33.9365 0.606445 31.8623 2.68067L9.63135 24.9102C9.31836 25.2236 9.08838 25.6104 8.9624 26.0352L5.625 37.3355L8.68653 36.4912L10.731 29.5713Z" fill="#D4E1F4"/>
<path d="M40.2575 1.79688C37.695 -0.765625 33.5407 -0.765625 30.9782 1.79688L8.74769 24.0269C8.65443 24.1211 8.56605 24.2197 8.48305 24.3228C8.44252 24.3545 8.40346 24.3882 8.36684 24.4243C8.2101 24.5811 8.09828 24.7769 8.04262 24.9917C7.92787 25.2124 7.83461 25.4439 7.76381 25.6821L4.4264 36.9824C4.2975 37.4175 4.41517 37.8882 4.73304 38.2124C5.0514 38.5362 5.51966 38.6621 5.95765 38.5415L17.4132 35.3828C17.6413 35.3199 17.8629 35.2359 18.0758 35.1328C18.3976 35.0738 18.6828 34.8897 18.8688 34.6201C18.9611 34.5435 19.0514 34.4639 19.1364 34.3789L41.3488 12.167C43.9074 9.60303 43.9074 5.45166 41.3488 2.8877L40.2575 1.79688ZM28.9377 7.37256L35.7726 14.2075L33.0255 16.9546L26.1906 10.1196L28.9377 7.37256ZM9.7975 27.6226L15.4938 33.3184L7.46107 35.5337L9.7975 27.6226ZM17.8454 32.1348L11.0104 25.2998L24.423 11.8877L31.258 18.7227L17.8454 32.1348ZM39.5812 10.3999L37.5412 12.4399L30.7062 5.60498L32.7462 3.56494C34.3322 1.97852 36.904 1.97852 38.4904 3.56494L39.5812 4.65577C41.1652 6.24268 41.1652 8.81251 39.5812 10.3999Z" fill="#0635C9"/>
</g>
<defs>
<clipPath id="clip0_8375_6455">
<rect width="50" height="50" fill="white" transform="translate(0.5)"/>
</clipPath>
</defs>
</svg>
