<svg width="51" height="50" viewBox="0 0 51 50" fill="none" xmlns="http://www.w3.org/2000/svg">
<g clip-path="url(#clip0_8375_6493)">
<path d="M6.16661 11.4015C6.16661 9.58254 7.64114 8.10802 9.46009 8.10802H49.3395V6.89699C49.3395 5.07804 47.865 3.60352 46.046 3.60352H4.95559C3.13663 3.60352 1.66211 5.07804 1.66211 6.89699V33.6623C1.66211 35.4812 3.13663 36.9558 4.95559 36.9558H6.16661V11.4015Z" fill="#D4E1F4"/>
<path d="M49.3386 31.7815H1.66128C1.03927 31.7815 0.535156 31.277 0.535156 30.6554C0.535156 30.0334 1.03927 29.5293 1.66128 29.5293H49.3386C49.9607 29.5293 50.4648 30.0334 50.4648 30.6554C50.4648 31.277 49.9607 31.7815 49.3386 31.7815Z" fill="#1AE5BE"/>
<path d="M46.0452 2.47656H4.9548C2.51779 2.47656 0.5 4.45916 0.5 6.89617V33.6615C0.5 36.0985 2.51779 38.0621 4.9548 38.0621H18.0676V46.3955C18.0676 47.0175 18.5717 47.5216 19.1937 47.5216C19.8157 47.5216 20.3198 47.0175 20.3198 46.3955V38.0621H30.6802V46.3955C30.6802 47.0175 31.1843 47.5216 31.8063 47.5216C32.4283 47.5216 32.9324 47.0175 32.9324 46.3955V38.0621H46.0452C48.4822 38.0621 50.5 36.0985 50.5 33.6615V6.89617C50.5 4.45916 48.4822 2.47656 46.0452 2.47656ZM48.1351 33.6425C48.1351 34.8395 47.1647 35.8099 45.9678 35.8099H4.91961C3.72266 35.8099 2.75225 34.8395 2.75225 33.6425V6.89617C2.75225 5.69922 3.72266 4.72881 4.91961 4.72881H45.9678C47.1647 4.72881 48.1351 5.69922 48.1351 6.89617V33.6425Z" fill="#0635C9"/>
<path d="M36.2143 47.5218H15.3761C14.7546 47.5218 14.25 47.0177 14.25 46.3957C14.25 45.7736 14.7546 45.2695 15.3761 45.2695H36.2143C36.8363 45.2695 37.3404 45.7736 37.3404 46.3957C37.3404 47.0177 36.8363 47.5218 36.2143 47.5218Z" fill="#1AE5BE"/>
</g>
<defs>
<clipPath id="clip0_8375_6493">
<rect width="50" height="50" fill="white" transform="translate(0.5)"/>
</clipPath>
</defs>
</svg>
