<svg width="51" height="50" viewBox="0 0 51 50" fill="none" xmlns="http://www.w3.org/2000/svg">
<g clip-path="url(#clip0_8375_6482)">
<path d="M16.1019 43.7495C13.7079 43.7495 11.7675 41.8091 11.7675 39.4151V1.25H11.102C8.70798 1.25 6.76758 3.19089 6.76758 5.58442V44.415C6.76758 46.809 8.70798 48.7494 11.102 48.7494H39.8985C42.292 48.7494 44.2329 46.809 44.2329 44.415V43.7495H16.1019Z" fill="#D4E1F4"/>
<path d="M31.1498 34.5679C30.664 34.5674 30.2221 34.2857 30.017 33.8448C29.8119 33.4044 29.8813 32.8848 30.1942 32.5128L33.0013 29.1774L30.1937 25.842C29.7577 25.3132 29.829 24.5319 30.3529 24.0905C30.8773 23.6491 31.6596 23.7126 32.1063 24.2321L35.5911 28.3727C35.9827 28.838 35.9827 29.5172 35.5911 29.9825L32.1068 34.1226C31.8695 34.4053 31.5189 34.5684 31.1498 34.5679Z" fill="#1AE5BE"/>
<path d="M19.8508 34.5679C19.4816 34.5684 19.1315 34.4053 18.8942 34.1226L15.4089 29.9825C15.0173 29.5172 15.0173 28.838 15.4089 28.3727L18.8942 24.2321C19.3405 23.7126 20.1227 23.6491 20.6471 24.0905C21.1716 24.5319 21.2424 25.3132 20.8063 25.842L17.9997 29.1774L20.8068 32.5128C21.1198 32.8844 21.1891 33.4039 20.9841 33.8448C20.779 34.2852 20.3371 34.5674 19.8513 34.5674L19.8508 34.5679Z" fill="#1AE5BE"/>
<path d="M24.4468 37.3272C23.7559 37.3272 23.1958 36.7677 23.1953 36.0772C23.1949 36.0138 23.1997 35.9513 23.209 35.8888L25.3164 22.0891C25.4209 21.4065 26.0586 20.9378 26.7412 21.0418C27.4233 21.1463 27.8921 21.784 27.7881 22.4666L25.6807 36.2662C25.5874 36.8756 25.0635 37.3263 24.4468 37.3272Z" fill="#0635C9"/>
<path d="M45.4839 11.4017C45.4839 11.4017 45.4795 11.4007 45.4795 11.4002C45.4746 11.3583 45.4673 11.3163 45.4575 11.2748C45.4575 11.2738 45.4565 11.2733 45.456 11.2728C45.4473 11.2318 45.436 11.1913 45.4238 11.1517C45.4224 11.1478 45.4204 11.1439 45.4189 11.139C45.4072 11.1034 45.394 11.0682 45.3789 11.034C45.3755 11.0257 45.3711 11.0174 45.3667 11.0091C45.353 10.9798 45.3389 10.951 45.3232 10.9227C45.3169 10.911 45.3096 10.8998 45.3022 10.888C45.2881 10.8646 45.2739 10.8412 45.2583 10.8182C45.2485 10.805 45.2383 10.7919 45.2285 10.7787C45.2134 10.7591 45.1982 10.7391 45.1821 10.7206C45.1709 10.7069 45.1587 10.6942 45.1465 10.681C45.1299 10.6634 45.1133 10.6464 45.0967 10.6293C45.0913 10.6244 45.0864 10.6185 45.0811 10.6131L33.9684 0.332515C33.9601 0.324215 33.9503 0.317379 33.9415 0.309566C33.9264 0.296871 33.9113 0.283688 33.8956 0.271481C33.88 0.258786 33.8654 0.248044 33.8497 0.236813C33.8341 0.225583 33.8161 0.2124 33.799 0.201169C33.7838 0.191404 33.7682 0.182615 33.7526 0.173338C33.7335 0.162107 33.715 0.151365 33.695 0.141111C33.6803 0.133299 33.6657 0.126463 33.6505 0.119627C33.6295 0.109862 33.6085 0.0996081 33.5871 0.0913075C33.5719 0.0849599 33.5573 0.0800771 33.5421 0.0747061C33.5197 0.0668937 33.4977 0.058593 33.4748 0.0517571C33.4586 0.0473627 33.4425 0.0434565 33.4264 0.0395503C33.404 0.033691 33.3825 0.0278317 33.3595 0.0234372C33.339 0.019531 33.318 0.0170897 33.297 0.0141599C33.279 0.0112303 33.2604 0.0078124 33.2418 0.00634757C33.2013 0.00244137 33.1608 0 33.1198 0H11.1015C8.01511 0.0019531 5.51123 2.49899 5.5 5.58538V44.4155C5.51123 47.5014 8.01511 49.9979 11.1015 49.9999H39.898C42.9839 49.9979 45.4878 47.5014 45.4995 44.4155V11.5316C45.4966 11.4881 45.4912 11.4447 45.4839 11.4017ZM34.3746 4.10981L41.0406 10.2504H35.2867C34.7965 10.2645 34.3883 9.87829 34.3746 9.38807C34.3746 9.37977 34.3746 9.37147 34.3746 9.36414V4.10981ZM39.898 47.4999H11.1015C9.39546 47.4994 8.00973 46.1215 7.99997 44.4155V5.58538C8.00973 3.87935 9.39546 2.50095 11.1015 2.50046H31.8747V9.36414C31.8771 11.2367 33.3971 12.7528 35.2696 12.7503H42.9995V44.4155C42.9893 46.1215 41.604 47.4994 39.898 47.4999Z" fill="#0635C9"/>
</g>
<defs>
<clipPath id="clip0_8375_6482">
<rect width="50" height="50" fill="white" transform="translate(0.5)"/>
</clipPath>
</defs>
</svg>
