<svg width="26" height="20" viewBox="0 0 26 20" fill="none" xmlns="http://www.w3.org/2000/svg">
<path d="M24.1539 0H3.84615C3.35652 0 2.88694 0.191558 2.54072 0.532533C2.1945 0.873508 2 1.33597 2 1.81818V18.1818C2 18.664 2.1945 19.1265 2.54072 19.4675C2.88694 19.8084 3.35652 20 3.84615 20H24.1539C24.6435 20 25.1131 19.8084 25.4593 19.4675C25.8055 19.1265 26 18.664 26 18.1818V1.81818C26 1.33597 25.8055 0.873508 25.4593 0.532533C25.1131 0.191558 24.6435 0 24.1539 0ZM9.93847 12C10.1343 12.1447 10.2638 12.36 10.2984 12.5987C10.333 12.8374 10.27 13.0798 10.1231 13.2727C9.97619 13.4656 9.75751 13.5931 9.51515 13.6272C9.2728 13.6613 9.02663 13.5992 8.83077 13.4545L5.13846 10.7273C5.02381 10.6426 4.93076 10.5328 4.86668 10.4066C4.80259 10.2803 4.76923 10.1411 4.76923 10C4.76923 9.85887 4.80259 9.71968 4.86668 9.59344C4.93076 9.46721 5.02381 9.35741 5.13846 9.27273L8.83077 6.54545C9.02663 6.40079 9.2728 6.33868 9.51515 6.37277C9.75751 6.40687 9.97619 6.53439 10.1231 6.72727C10.27 6.92016 10.333 7.16261 10.2984 7.40129C10.2638 7.63998 10.1343 7.85534 9.93847 8L7.23039 10L9.93847 12ZM16.7335 3.88636L13.0412 16.6136C13.0097 16.7305 12.9549 16.8399 12.88 16.9356C12.805 17.0314 12.7115 17.1114 12.6047 17.1711C12.498 17.2307 12.3803 17.2689 12.2584 17.2832C12.1366 17.2975 12.013 17.2878 11.8951 17.2546C11.7771 17.2213 11.667 17.1652 11.5713 17.0896C11.4756 17.014 11.3961 16.9203 11.3376 16.814C11.2791 16.7078 11.2426 16.5912 11.2304 16.4709C11.2182 16.3506 11.2305 16.2292 11.2665 16.1136L14.9589 3.38636C15.0298 3.15879 15.1886 2.96771 15.4011 2.85419C15.6135 2.74066 15.8628 2.71375 16.0952 2.77923C16.3276 2.84471 16.5246 2.99736 16.644 3.20437C16.7633 3.41139 16.7955 3.65626 16.7335 3.88636ZM22.8616 10.7273L19.1692 13.4545C18.9734 13.5992 18.7272 13.6613 18.4849 13.6272C18.2425 13.5931 18.0238 13.4656 17.8769 13.2727C17.73 13.0798 17.667 12.8374 17.7016 12.5987C17.7362 12.36 17.8657 12.1447 18.0616 12L20.7696 10L18.0616 8C17.9646 7.92837 17.8829 7.83863 17.8211 7.7359C17.7594 7.63318 17.7187 7.51948 17.7016 7.40129C17.6845 7.28311 17.6911 7.16276 17.7212 7.04711C17.7513 6.93146 17.8042 6.82278 17.8769 6.72727C17.9497 6.63177 18.0408 6.5513 18.1451 6.49048C18.2494 6.42965 18.3649 6.38966 18.4849 6.37277C18.6049 6.35589 18.7271 6.36245 18.8445 6.39208C18.9619 6.42171 19.0723 6.47382 19.1692 6.54545L22.8616 9.27273C22.9762 9.35741 23.0692 9.46721 23.1333 9.59344C23.1974 9.71968 23.2308 9.85887 23.2308 10C23.2308 10.1411 23.1974 10.2803 23.1333 10.4066C23.0692 10.5328 22.9762 10.6426 22.8616 10.7273Z" fill="#0252CD"/>
<path d="M22.1539 0H1.84615C1.35652 0 0.886945 0.191558 0.540725 0.532533C0.194505 0.873508 0 1.33597 0 1.81818V18.1818C0 18.664 0.194505 19.1265 0.540725 19.4675C0.886945 19.8084 1.35652 20 1.84615 20H22.1539C22.6435 20 23.1131 19.8084 23.4593 19.4675C23.8055 19.1265 24 18.664 24 18.1818V1.81818C24 1.33597 23.8055 0.873508 23.4593 0.532533C23.1131 0.191558 22.6435 0 22.1539 0ZM7.93847 12C8.13432 12.1447 8.26379 12.36 8.29842 12.5987C8.33304 12.8374 8.26997 13.0798 8.12308 13.2727C7.97619 13.4656 7.75751 13.5931 7.51515 13.6272C7.2728 13.6613 7.02663 13.5992 6.83077 13.4545L3.13846 10.7273C3.02381 10.6426 2.93076 10.5328 2.86668 10.4066C2.80259 10.2803 2.76923 10.1411 2.76923 10C2.76923 9.85887 2.80259 9.71968 2.86668 9.59344C2.93076 9.46721 3.02381 9.35741 3.13846 9.27273L6.83077 6.54545C7.02663 6.40079 7.2728 6.33868 7.51515 6.37277C7.75751 6.40687 7.97619 6.53439 8.12308 6.72727C8.26997 6.92016 8.33304 7.16261 8.29842 7.40129C8.26379 7.63998 8.13432 7.85534 7.93847 8L5.23039 10L7.93847 12ZM14.7335 3.88636L11.0412 16.6136C11.0097 16.7305 10.9549 16.8399 10.88 16.9356C10.805 17.0314 10.7115 17.1114 10.6047 17.1711C10.498 17.2307 10.3803 17.2689 10.2584 17.2832C10.1366 17.2975 10.013 17.2878 9.89509 17.2546C9.77709 17.2213 9.66699 17.1652 9.57129 17.0896C9.47558 17.014 9.39611 16.9203 9.33759 16.814C9.27906 16.7078 9.24264 16.5912 9.23044 16.4709C9.21824 16.3506 9.2305 16.2292 9.26653 16.1136L12.9589 3.38636C13.0298 3.15879 13.1886 2.96771 13.4011 2.85419C13.6135 2.74066 13.8628 2.71375 14.0952 2.77923C14.3276 2.84471 14.5246 2.99736 14.644 3.20437C14.7633 3.41139 14.7955 3.65626 14.7335 3.88636ZM20.8616 10.7273L17.1692 13.4545C16.9734 13.5992 16.7272 13.6613 16.4849 13.6272C16.2425 13.5931 16.0238 13.4656 15.8769 13.2727C15.73 13.0798 15.667 12.8374 15.7016 12.5987C15.7362 12.36 15.8657 12.1447 16.0616 12L18.7696 10L16.0616 8C15.9646 7.92837 15.8829 7.83863 15.8211 7.7359C15.7594 7.63318 15.7187 7.51948 15.7016 7.40129C15.6845 7.28311 15.6911 7.16276 15.7212 7.04711C15.7513 6.93146 15.8042 6.82278 15.8769 6.72727C15.9497 6.63177 16.0408 6.5513 16.1451 6.49048C16.2494 6.42965 16.3649 6.38966 16.4849 6.37277C16.6049 6.35589 16.7271 6.36245 16.8445 6.39208C16.9619 6.42171 17.0723 6.47382 17.1692 6.54545L20.8616 9.27273C20.9762 9.35741 21.0692 9.46721 21.1333 9.59344C21.1974 9.71968 21.2308 9.85887 21.2308 10C21.2308 10.1411 21.1974 10.2803 21.1333 10.4066C21.0692 10.5328 20.9762 10.6426 20.8616 10.7273Z" fill="#0252CD"/>
</svg>
