<svg width="16" height="20" viewBox="0 0 16 20" fill="none" xmlns="http://www.w3.org/2000/svg">
<path d="M15.9782 11.212C16.0193 11.0213 16.0036 10.8227 15.9333 10.6408C15.8629 10.4588 15.7409 10.3014 15.5822 10.188L1.58223 0.18792C1.42469 0.0746378 1.23757 0.00968707 1.04372 0.00100155C0.849866 -0.00768396 0.657687 0.0402716 0.490647 0.139011C0.323611 0.23775 0.188943 0.382998 0.103094 0.557015C0.0172445 0.731031 -0.0160685 0.926283 0.00722454 1.11892L2.00723 18.119C2.03025 18.3139 2.11011 18.4977 2.23685 18.6475C2.3636 18.7973 2.53163 18.9066 2.72001 18.9616C2.90839 19.0166 3.1088 19.015 3.29626 18.9569C3.48372 18.8988 3.64994 18.7868 3.77423 18.635L7.38623 14.219L10.7632 19.679L12.4642 18.627L9.10723 13.199L15.1962 11.981C15.3875 11.9435 15.5637 11.8507 15.7027 11.7139C15.8417 11.5772 15.9375 11.4027 15.9782 11.212Z" fill="#0252CD"/>
</svg>
