<svg width="471" height="70" viewBox="0 0 471 70" fill="none" xmlns="http://www.w3.org/2000/svg">
<path d="M460 35.5L1 35.5" stroke="#151E2C" stroke-opacity="0.4" stroke-linecap="round"/>
<path d="M436 0C416.67 0 401 15.67 401 35C401 54.33 416.67 70 436 70C455.33 70 471 54.33 471 35C471 15.67 455.33 0 436 0Z" fill="#F3F8FF"/>
<path d="M436 0.5C416.946 0.5 401.5 15.9462 401.5 35C401.5 54.0538 416.946 69.5 436 69.5C455.054 69.5 470.5 54.0538 470.5 35C470.5 15.9462 455.054 0.5 436 0.5Z" stroke="#151E2C" stroke-opacity="0.4"/>
<path d="M436 13C423.85 13 414 22.8497 414 35C414 47.1503 423.85 57 436 57C448.15 57 458 47.1503 458 35C458 22.8497 448.15 13 436 13Z" fill="#151E2C"/>
</svg>
