<svg width="45" height="45" viewBox="0 0 45 45" fill="none" xmlns="http://www.w3.org/2000/svg">
<rect x="45" y="45" width="45" height="45" rx="22.5" transform="rotate(180 45 45)" fill="url(#paint0_angular_401_3)"/>
<path d="M19.2957 23.6038C19.2957 24.2817 19.1675 24.9197 18.9111 25.5178C18.6548 26.1103 18.3044 26.6287 17.8601 27.073C17.4215 27.5116 16.9031 27.8591 16.3049 28.1155C15.7125 28.3718 15.0773 28.5 14.3994 28.5C13.9893 28.5 13.5791 28.4487 13.1689 28.3462V25.7144C13.3512 25.8226 13.5478 25.9052 13.7585 25.9622C13.9693 26.0191 14.1829 26.0476 14.3994 26.0476C14.7355 26.0476 15.0517 25.9849 15.3479 25.8596C15.6498 25.7286 15.9119 25.552 16.134 25.3298C16.3562 25.1077 16.5299 24.8485 16.6553 24.5522C16.7863 24.256 16.8518 23.9399 16.8518 23.6038V16.2466H19.2957V23.6038ZM28.5583 23.6038V21.1514C28.5583 20.8153 28.4928 20.4991 28.3618 20.2029C28.2365 19.901 28.0627 19.6389 27.8406 19.4167C27.6184 19.1946 27.3564 19.0208 27.0544 18.8955C26.7582 18.7645 26.4421 18.699 26.106 18.699C25.7699 18.699 25.4508 18.7645 25.1489 18.8955C24.8527 19.0208 24.5935 19.1946 24.3713 19.4167C24.1492 19.6389 23.9726 19.901 23.8416 20.2029C23.7162 20.4991 23.6536 20.8153 23.6536 21.1514V23.6038H28.5583ZM31.0107 28.5H28.5583L28.5583 26.0476H23.6536V28.5H21.2097V21.1514C21.2097 20.4735 21.3379 19.8383 21.5942 19.2458C21.8506 18.6477 22.1981 18.1265 22.6367 17.6821C23.0811 17.2378 23.5994 16.8875 24.1919 16.6311C24.79 16.3748 25.4281 16.2466 26.106 16.2466C26.7839 16.2466 27.419 16.3748 28.0115 16.6311C28.6096 16.8875 29.1309 17.2378 29.5752 17.6821C30.0195 18.1265 30.3699 18.6477 30.6262 19.2458C30.8826 19.8383 31.0107 20.4735 31.0107 21.1514L31.0107 28.5Z" fill="white"/>
<defs>
<radialGradient id="paint0_angular_401_3" cx="0" cy="0" r="1" gradientUnits="userSpaceOnUse" gradientTransform="translate(67.5 79) rotate(90) scale(11)">
<stop stop-color="#0252CD"/>
<stop offset="1" stop-color="#0252CD" stop-opacity="0.33"/>
</radialGradient>
</defs>
</svg>
