<svg width="600" height="601" viewBox="0 0 600 601" fill="none" xmlns="http://www.w3.org/2000/svg">
<path d="M280.352 0.161486C279.062 0.278788 274.956 0.689345 271.261 0.9826C186.041 8.66589 106.217 54.6483 55.6598 125.323C27.5073 164.619 9.50147 209.194 2.69795 256.408C0.293255 272.889 0 277.757 0 300.103C0 322.449 0.293255 327.317 2.69795 343.798C19.0029 456.467 99.1789 551.129 207.918 586.203C227.39 592.478 247.918 596.76 271.261 599.34C280.352 600.337 319.648 600.337 328.739 599.34C369.032 594.883 403.167 584.912 436.833 567.728C441.994 565.088 442.991 564.384 442.287 563.798C441.818 563.446 419.824 533.945 393.431 498.285L345.455 433.475L285.337 344.502C252.258 295.587 225.044 255.587 224.809 255.587C224.575 255.528 224.34 295.059 224.223 343.329C224.047 427.845 223.988 431.247 222.933 433.241C221.408 436.115 220.235 437.288 217.771 438.578C215.894 439.516 214.252 439.692 205.396 439.692H195.249L192.551 437.991C190.792 436.877 189.501 435.411 188.622 433.71L187.39 431.071L187.507 313.475L187.683 195.821L189.501 193.534C190.44 192.302 192.434 190.719 193.842 189.956C196.246 188.783 197.185 188.666 207.331 188.666C219.296 188.666 221.29 189.135 224.399 192.537C225.279 193.475 257.83 242.508 296.774 301.569C335.718 360.631 388.974 441.276 415.132 480.865L462.639 552.83L465.044 551.247C486.334 537.405 508.856 517.698 526.686 497.17C564.633 453.593 589.091 400.455 597.302 343.798C599.707 327.317 600 322.449 600 300.103C600 277.757 599.707 272.889 597.302 256.408C580.997 143.739 500.821 49.0764 392.082 14.0031C372.903 7.78612 352.493 3.50459 329.619 0.923949C323.988 0.337439 285.22 -0.307722 280.352 0.161486ZM403.167 181.628C405.982 183.035 408.27 185.733 409.091 188.549C409.56 190.074 409.677 222.683 409.56 296.173L409.384 401.628L390.792 373.123L372.141 344.619V267.962C372.141 218.402 372.375 190.543 372.727 189.194C373.666 185.909 375.718 183.329 378.534 181.804C380.938 180.572 381.818 180.455 391.026 180.455C399.707 180.455 401.232 180.572 403.167 181.628Z" fill="black"/>
</svg>
