<svg width="600" height="570" viewBox="0 0 600 570" fill="none" xmlns="http://www.w3.org/2000/svg">
<path d="M415.737 397.812C437.878 395.52 454.676 376.432 453.912 353.524C453.15 330.619 434.06 312.293 411.155 312.293H409.629C385.957 313.057 367.634 332.909 368.398 356.578C369.162 368.032 373.741 377.958 380.613 384.83C354.654 435.989 314.951 473.402 255.396 504.708C214.929 526.087 172.936 533.723 130.943 528.38C96.5836 523.798 69.8601 508.528 53.0601 483.328C28.6289 445.915 26.339 405.445 46.9547 364.978C61.4625 335.962 84.3656 314.583 98.8734 303.893C95.8195 293.967 91.2375 277.17 88.9476 264.954C-21.7641 345.127 -10.3102 453.551 23.2851 504.708C48.4804 542.887 99.6375 566.557 156.138 566.557C171.408 566.557 186.677 565.029 201.949 561.213C299.681 542.123 373.744 484.092 415.737 397.812ZM550.118 303.131C492.089 235.174 406.575 197.761 308.843 197.761H296.627C289.755 184.017 275.248 174.853 259.214 174.853H257.686C234.019 175.617 215.695 195.469 216.457 219.141C217.221 242.046 236.309 260.372 259.214 260.372H260.74C277.537 259.608 292.045 248.918 298.153 234.41H311.897C369.926 234.41 424.898 251.208 474.53 284.041C512.705 309.239 540.192 342.073 555.462 381.776C568.441 413.845 567.677 445.151 553.934 471.877C532.556 512.344 496.671 534.488 449.332 534.488C418.791 534.488 389.777 525.323 374.505 518.452C366.108 526.087 350.836 538.303 340.146 545.941C372.98 561.211 406.575 569.611 438.642 569.611C511.941 569.611 566.151 529.141 586.767 488.674C608.909 444.387 607.38 368.032 550.118 303.131ZM162.246 410.789C163.01 433.697 182.098 452.02 205.003 452.02H206.531C230.201 451.259 248.524 431.405 247.76 407.735C246.998 384.827 227.909 366.504 205.003 366.504H203.477C201.949 366.504 199.657 366.504 198.134 367.266C166.828 315.345 153.848 258.844 158.43 197.759C161.482 151.945 176.754 112.24 203.477 79.4063C225.619 51.1547 268.376 37.4109 297.391 36.6492C378.323 35.1211 412.68 135.909 414.973 176.379C424.898 178.669 441.696 184.015 453.15 187.833C443.986 64.1391 367.634 0 294.337 0C225.619 0 162.246 49.6313 137.048 122.932C101.927 220.666 124.833 314.583 167.59 388.648C163.774 393.991 161.482 402.389 162.246 410.789Z" fill="#764ABC"/>
</svg>
