<svg width="323" height="264" viewBox="0 0 323 264" fill="none" xmlns="http://www.w3.org/2000/svg">
<rect width="323" height="264" rx="10" fill="#E4E4E4"/>
<path d="M79.0682 148.182V118.182H82.3068V121.648H82.7045C82.9508 121.269 83.2917 120.786 83.7273 120.199C84.1723 119.602 84.8068 119.072 85.6307 118.608C86.464 118.134 87.5909 117.898 89.0114 117.898C90.8485 117.898 92.4678 118.357 93.8693 119.276C95.2708 120.194 96.3646 121.496 97.1506 123.182C97.9366 124.867 98.3295 126.856 98.3295 129.148C98.3295 131.458 97.9366 133.461 97.1506 135.156C96.3646 136.842 95.2756 138.149 93.8835 139.077C92.4915 139.995 90.8864 140.455 89.0682 140.455C87.6667 140.455 86.5445 140.223 85.7017 139.759C84.8589 139.285 84.2102 138.75 83.7557 138.153C83.3011 137.547 82.9508 137.045 82.7045 136.648H82.4205V148.182H79.0682ZM82.3636 129.091C82.3636 130.739 82.6051 132.192 83.0881 133.452C83.571 134.702 84.2765 135.682 85.2045 136.392C86.1326 137.093 87.2689 137.443 88.6136 137.443C90.0152 137.443 91.1847 137.074 92.1222 136.335C93.0691 135.587 93.7794 134.583 94.2528 133.324C94.7358 132.055 94.9773 130.644 94.9773 129.091C94.9773 127.557 94.7405 126.174 94.267 124.943C93.803 123.703 93.0975 122.723 92.1506 122.003C91.2131 121.274 90.0341 120.909 88.6136 120.909C87.25 120.909 86.1042 121.255 85.1761 121.946C84.2481 122.628 83.5473 123.584 83.0739 124.815C82.6004 126.037 82.3636 127.462 82.3636 129.091ZM103.443 140V118.182H106.682V121.477H106.909C107.307 120.398 108.027 119.522 109.068 118.849C110.11 118.177 111.284 117.841 112.591 117.841C112.837 117.841 113.145 117.846 113.514 117.855C113.884 117.865 114.163 117.879 114.352 117.898V121.307C114.239 121.278 113.978 121.236 113.571 121.179C113.173 121.113 112.752 121.08 112.307 121.08C111.246 121.08 110.299 121.302 109.466 121.747C108.642 122.183 107.989 122.789 107.506 123.565C107.032 124.332 106.795 125.208 106.795 126.193V140H103.443ZM126.526 140.455C124.556 140.455 122.828 139.986 121.341 139.048C119.864 138.111 118.708 136.799 117.875 135.114C117.051 133.428 116.639 131.458 116.639 129.205C116.639 126.932 117.051 124.948 117.875 123.253C118.708 121.558 119.864 120.241 121.341 119.304C122.828 118.366 124.556 117.898 126.526 117.898C128.495 117.898 130.219 118.366 131.696 119.304C133.183 120.241 134.338 121.558 135.162 123.253C135.995 124.948 136.412 126.932 136.412 129.205C136.412 131.458 135.995 133.428 135.162 135.114C134.338 136.799 133.183 138.111 131.696 139.048C130.219 139.986 128.495 140.455 126.526 140.455ZM126.526 137.443C128.022 137.443 129.253 137.06 130.219 136.293C131.185 135.526 131.9 134.517 132.364 133.267C132.828 132.017 133.06 130.663 133.06 129.205C133.06 127.746 132.828 126.387 132.364 125.128C131.9 123.868 131.185 122.85 130.219 122.074C129.253 121.297 128.022 120.909 126.526 120.909C125.029 120.909 123.798 121.297 122.832 122.074C121.866 122.85 121.152 123.868 120.688 125.128C120.223 126.387 119.991 127.746 119.991 129.205C119.991 130.663 120.223 132.017 120.688 133.267C121.152 134.517 121.866 135.526 122.832 136.293C123.798 137.06 125.029 137.443 126.526 137.443ZM141.529 118.182H144.881V141.591C144.881 142.936 144.649 144.1 144.185 145.085C143.731 146.07 143.04 146.832 142.112 147.372C141.193 147.912 140.033 148.182 138.631 148.182C138.518 148.182 138.404 148.182 138.29 148.182C138.177 148.182 138.063 148.182 137.95 148.182V145.057C138.063 145.057 138.167 145.057 138.262 145.057C138.357 145.057 138.461 145.057 138.575 145.057C139.597 145.057 140.345 144.754 140.819 144.148C141.292 143.551 141.529 142.699 141.529 141.591V118.182ZM143.177 114.545C142.523 114.545 141.96 114.323 141.487 113.878C141.022 113.433 140.79 112.898 140.79 112.273C140.79 111.648 141.022 111.113 141.487 110.668C141.96 110.223 142.523 110 143.177 110C143.83 110 144.389 110.223 144.853 110.668C145.326 111.113 145.563 111.648 145.563 112.273C145.563 112.898 145.326 113.433 144.853 113.878C144.389 114.323 143.83 114.545 143.177 114.545ZM160.169 140.455C158.067 140.455 156.253 139.991 154.729 139.062C153.214 138.125 152.044 136.818 151.22 135.142C150.406 133.456 149.999 131.496 149.999 129.261C149.999 127.027 150.406 125.057 151.22 123.352C152.044 121.638 153.19 120.303 154.658 119.347C156.135 118.381 157.858 117.898 159.828 117.898C160.964 117.898 162.087 118.087 163.195 118.466C164.303 118.845 165.311 119.46 166.22 120.312C167.129 121.155 167.854 122.273 168.393 123.665C168.933 125.057 169.203 126.771 169.203 128.807V130.227H152.385V127.33H165.794C165.794 126.098 165.548 125 165.055 124.034C164.572 123.068 163.881 122.306 162.982 121.747C162.091 121.188 161.04 120.909 159.828 120.909C158.493 120.909 157.338 121.241 156.362 121.903C155.396 122.557 154.653 123.409 154.132 124.46C153.611 125.511 153.351 126.638 153.351 127.841V129.773C153.351 131.42 153.635 132.817 154.203 133.963C154.781 135.099 155.581 135.966 156.604 136.562C157.626 137.15 158.815 137.443 160.169 137.443C161.05 137.443 161.845 137.32 162.555 137.074C163.275 136.818 163.895 136.439 164.416 135.938C164.937 135.426 165.339 134.792 165.624 134.034L168.862 134.943C168.521 136.042 167.948 137.008 167.143 137.841C166.339 138.665 165.344 139.309 164.161 139.773C162.977 140.227 161.646 140.455 160.169 140.455ZM183.166 140.455C181.121 140.455 179.359 139.972 177.882 139.006C176.405 138.04 175.268 136.709 174.473 135.014C173.678 133.319 173.28 131.383 173.28 129.205C173.28 126.989 173.687 125.033 174.501 123.338C175.325 121.634 176.471 120.303 177.939 119.347C179.416 118.381 181.14 117.898 183.109 117.898C184.643 117.898 186.026 118.182 187.257 118.75C188.488 119.318 189.497 120.114 190.283 121.136C191.069 122.159 191.556 123.352 191.746 124.716H188.393C188.138 123.722 187.57 122.841 186.689 122.074C185.818 121.297 184.643 120.909 183.166 120.909C181.859 120.909 180.714 121.25 179.729 121.932C178.753 122.604 177.991 123.556 177.442 124.787C176.902 126.009 176.632 127.443 176.632 129.091C176.632 130.777 176.897 132.244 177.428 133.494C177.967 134.744 178.725 135.715 179.7 136.406C180.685 137.098 181.84 137.443 183.166 137.443C184.037 137.443 184.828 137.292 185.538 136.989C186.249 136.686 186.85 136.25 187.342 135.682C187.835 135.114 188.185 134.432 188.393 133.636H191.746C191.556 134.924 191.088 136.084 190.339 137.116C189.601 138.139 188.621 138.954 187.399 139.56C186.187 140.156 184.776 140.455 183.166 140.455ZM206.135 118.182V121.023H194.828V118.182H206.135ZM198.124 112.955H201.476V133.75C201.476 134.697 201.613 135.407 201.888 135.881C202.172 136.345 202.532 136.657 202.967 136.818C203.412 136.97 203.881 137.045 204.374 137.045C204.743 137.045 205.046 137.027 205.283 136.989C205.519 136.941 205.709 136.903 205.851 136.875L206.533 139.886C206.305 139.972 205.988 140.057 205.581 140.142C205.174 140.237 204.658 140.284 204.033 140.284C203.086 140.284 202.158 140.08 201.249 139.673C200.349 139.266 199.601 138.646 199.004 137.812C198.417 136.979 198.124 135.928 198.124 134.659V112.955ZM232.598 110.909V140H229.075V114.602H228.905L221.803 119.318V115.739L229.075 110.909H232.598Z" fill="black"/>
</svg>
